<svg xmlns="http://www.w3.org/2000/svg" xmlns:xlink="http://www.w3.org/1999/xlink" width="500" zoomAndPan="magnify" viewBox="0 0 375 187.499995" height="250" preserveAspectRatio="xMidYMid meet" version="1.0"><defs><g/><clipPath id="2291e0cccb"><path d="M 25.894531 49.429688 L 137 49.429688 L 137 148.914062 L 25.894531 148.914062 Z M 25.894531 49.429688 " clip-rule="nonzero"/></clipPath><clipPath id="3d28a95f97"><path d="M 90 71 L 152.308594 71 L 152.308594 104 L 90 104 Z M 90 71 " clip-rule="nonzero"/></clipPath></defs><g clip-path="url(#2291e0cccb)"><path fill="#ff7a28" d="M 37.199219 118.539062 C 37.199219 107.925781 45.804688 99.316406 56.417969 99.316406 C 59.558594 99.316406 62.511719 100.085938 65.128906 101.421875 L 58.003906 111.226562 C 57.492188 111.113281 56.964844 111.054688 56.417969 111.054688 C 52.285156 111.054688 48.933594 114.40625 48.933594 118.539062 C 48.933594 122.675781 52.285156 126.027344 56.417969 126.027344 C 60.554688 126.027344 63.90625 122.675781 63.90625 118.539062 C 63.90625 116.195312 62.824219 114.105469 61.140625 112.734375 L 68.542969 103.632812 C 72.871094 107.15625 75.640625 112.523438 75.640625 118.539062 C 75.640625 129.15625 67.035156 137.761719 56.417969 137.761719 C 45.804688 137.761719 37.199219 129.15625 37.199219 118.539062 Z M 25.898438 118.539062 C 25.898438 135.394531 39.5625 149.0625 56.417969 149.0625 C 73.277344 149.0625 86.941406 135.394531 86.941406 118.539062 C 86.941406 108.984375 82.546875 100.457031 75.671875 94.863281 L 103.507812 60.636719 C 103.507812 60.636719 108.238281 60.152344 112.972656 65.078125 C 117.703125 70.003906 122.339844 72.320312 122.628906 70.003906 C 122.921875 67.683594 120.601562 68.363281 118.285156 67.300781 C 115.964844 66.238281 111.039062 60.539062 107.851562 59.28125 L 109.6875 57.15625 L 133.929688 68.363281 L 136.539062 63.050781 C 136.539062 63.050781 107.851562 49.429688 102.636719 49.816406 L 91.292969 65.425781 L 90.277344 64.257812 C 87.648438 61.234375 83.789062 59.570312 79.789062 59.738281 L 75.640625 59.910156 C 75.640625 59.910156 74.578125 70.921875 75.640625 79.035156 L 80.550781 80.203125 L 71.832031 92.199219 C 67.308594 89.546875 62.042969 88.015625 56.417969 88.015625 C 39.5625 88.015625 25.898438 101.683594 25.898438 118.539062 " fill-opacity="1" fill-rule="nonzero"/></g><g clip-path="url(#3d28a95f97)"><path fill="#ff7a28" d="M 152.621094 98.449219 C 152.621094 98.449219 137.699219 84.539062 124.222656 81.933594 C 110.75 79.324219 118.925781 89.0625 126.253906 87.148438 C 133.578125 85.234375 136.25 92.21875 136.25 92.21875 C 136.25 92.21875 131.417969 88.164062 126.785156 90.191406 C 122.148438 92.21875 112.875 92.316406 109.492188 87.003906 C 106.113281 81.691406 99.835938 81.539062 98.386719 84.171875 C 96.9375 86.808594 99.933594 96.277344 116.738281 94.828125 C 133.542969 93.378906 136.054688 101.492188 136.054688 101.492188 C 136.054688 101.492188 129.683594 96.757812 122.628906 98.402344 C 116.960938 99.722656 119.207031 102.347656 123.175781 102.175781 C 115.90625 103.535156 97.9375 105.425781 91.90625 92.539062 C 88.347656 84.9375 92.414062 75.851562 100.328125 73.058594 C 111.460938 69.128906 130.601562 69.210938 152.621094 98.449219 " fill-opacity="1" fill-rule="nonzero"/></g><g fill="#ff7a28" fill-opacity="1"><g transform="translate(157.86078, 121.287812)"><g><path d="M 1.796875 0 L 1.796875 -40.734375 L 14.234375 -40.734375 L 17.640625 -15.890625 L 21.0625 -40.734375 L 33.578125 -40.734375 L 33.578125 0 L 26.125 0 L 26.125 -29.359375 L 21.4375 0 L 14.125 0 L 9.15625 -29.359375 L 9.15625 0 Z M 1.796875 0 "/></g></g></g><g fill="#ff7a28" fill-opacity="1"><g transform="translate(195.78525, 121.287812)"><g><path d="M 11.53125 0.375 C 8.238281 0.375 5.738281 -0.625 4.03125 -2.625 C 2.320312 -4.632812 1.46875 -7.457031 1.46875 -11.09375 L 1.46875 -30.5 C 1.46875 -34 2.320312 -36.640625 4.03125 -38.421875 C 5.738281 -40.210938 8.238281 -41.109375 11.53125 -41.109375 C 14.8125 -41.109375 17.304688 -40.210938 19.015625 -38.421875 C 20.722656 -36.640625 21.578125 -34 21.578125 -30.5 L 21.578125 -11.09375 C 21.578125 -7.425781 20.722656 -4.597656 19.015625 -2.609375 C 17.304688 -0.617188 14.8125 0.375 11.53125 0.375 Z M 11.53125 -7.109375 C 12.25 -7.109375 12.734375 -7.425781 12.984375 -8.0625 C 13.242188 -8.695312 13.375 -9.582031 13.375 -10.71875 L 13.375 -30.640625 C 13.375 -31.523438 13.253906 -32.242188 13.015625 -32.796875 C 12.773438 -33.347656 12.296875 -33.625 11.578125 -33.625 C 10.210938 -33.625 9.53125 -32.597656 9.53125 -30.546875 L 9.53125 -10.671875 C 9.53125 -9.503906 9.671875 -8.617188 9.953125 -8.015625 C 10.242188 -7.410156 10.769531 -7.109375 11.53125 -7.109375 Z M 11.53125 -7.109375 "/></g></g></g><g fill="#ff7a28" fill-opacity="1"><g transform="translate(221.384468, 121.287812)"><g><path d="M 5.3125 0 L 5.3125 -32.90625 L 0.46875 -32.90625 L 0.46875 -40.734375 L 18.3125 -40.734375 L 18.3125 -32.90625 L 13.46875 -32.90625 L 13.46875 0 Z M 5.3125 0 "/></g></g></g><g fill="#ff7a28" fill-opacity="1"><g transform="translate(242.71725, 121.287812)"><g><path d="M 11.53125 0.375 C 8.238281 0.375 5.738281 -0.625 4.03125 -2.625 C 2.320312 -4.632812 1.46875 -7.457031 1.46875 -11.09375 L 1.46875 -30.5 C 1.46875 -34 2.320312 -36.640625 4.03125 -38.421875 C 5.738281 -40.210938 8.238281 -41.109375 11.53125 -41.109375 C 14.8125 -41.109375 17.304688 -40.210938 19.015625 -38.421875 C 20.722656 -36.640625 21.578125 -34 21.578125 -30.5 L 21.578125 -11.09375 C 21.578125 -7.425781 20.722656 -4.597656 19.015625 -2.609375 C 17.304688 -0.617188 14.8125 0.375 11.53125 0.375 Z M 11.53125 -7.109375 C 12.25 -7.109375 12.734375 -7.425781 12.984375 -8.0625 C 13.242188 -8.695312 13.375 -9.582031 13.375 -10.71875 L 13.375 -30.640625 C 13.375 -31.523438 13.253906 -32.242188 13.015625 -32.796875 C 12.773438 -33.347656 12.296875 -33.625 11.578125 -33.625 C 10.210938 -33.625 9.53125 -32.597656 9.53125 -30.546875 L 9.53125 -10.671875 C 9.53125 -9.503906 9.671875 -8.617188 9.953125 -8.015625 C 10.242188 -7.410156 10.769531 -7.109375 11.53125 -7.109375 Z M 11.53125 -7.109375 "/></g></g></g><g fill="#ffffff" fill-opacity="1"><g transform="translate(268.32012, 121.287812)"><g><path d="M 11.28125 0.375 C 8.3125 0.375 5.929688 -0.554688 4.140625 -2.421875 C 2.359375 -4.285156 1.46875 -6.84375 1.46875 -10.09375 L 1.46875 -28.875 C 1.46875 -32.925781 2.273438 -35.976562 3.890625 -38.03125 C 5.503906 -40.082031 8.03125 -41.109375 11.46875 -41.109375 C 14.476562 -41.109375 16.898438 -40.285156 18.734375 -38.640625 C 20.566406 -37.003906 21.484375 -34.632812 21.484375 -31.53125 L 21.484375 -24.515625 L 13.375 -24.515625 L 13.375 -30.546875 C 13.375 -31.710938 13.226562 -32.515625 12.9375 -32.953125 C 12.65625 -33.398438 12.164062 -33.625 11.46875 -33.625 C 10.75 -33.625 10.253906 -33.367188 9.984375 -32.859375 C 9.710938 -32.359375 9.578125 -31.617188 9.578125 -30.640625 L 9.578125 -10.203125 C 9.578125 -9.117188 9.734375 -8.332031 10.046875 -7.84375 C 10.367188 -7.351562 10.84375 -7.109375 11.46875 -7.109375 C 12.738281 -7.109375 13.375 -8.140625 13.375 -10.203125 L 13.375 -17.546875 L 21.578125 -17.546875 L 21.578125 -9.859375 C 21.578125 -3.035156 18.144531 0.375 11.28125 0.375 Z M 11.28125 0.375 "/></g></g></g><g fill="#ffffff" fill-opacity="1"><g transform="translate(293.350482, 121.287812)"><g><path d="M 0.71875 0 L 4.640625 -40.734375 L 18.453125 -40.734375 L 22.328125 0 L 14.609375 0 L 14.03125 -6.59375 L 9.109375 -6.59375 L 8.625 0 Z M 9.71875 -13.09375 L 13.421875 -13.09375 L 11.625 -33.8125 L 11.234375 -33.8125 Z M 9.71875 -13.09375 "/></g></g></g><g fill="#ffffff" fill-opacity="1"><g transform="translate(318.902299, 121.287812)"><g><path d="M 1.796875 -40.734375 L 14.328125 -40.734375 C 16.316406 -40.734375 17.851562 -40.28125 18.9375 -39.375 C 20.03125 -38.476562 20.765625 -37.210938 21.140625 -35.578125 C 21.523438 -33.953125 21.71875 -31.878906 21.71875 -29.359375 C 21.71875 -27.046875 21.414062 -25.238281 20.8125 -23.9375 C 20.21875 -22.644531 19.175781 -21.75 17.6875 -21.25 C 18.914062 -20.988281 19.804688 -20.367188 20.359375 -19.390625 C 20.921875 -18.410156 21.203125 -17.082031 21.203125 -15.40625 L 21.109375 0 L 13.140625 0 L 13.140625 -15.9375 C 13.140625 -17.070312 12.914062 -17.796875 12.46875 -18.109375 C 12.03125 -18.429688 11.222656 -18.59375 10.046875 -18.59375 L 10.046875 0 L 1.796875 0 Z M 12.046875 -25.65625 C 13.179688 -25.65625 13.75 -26.890625 13.75 -29.359375 C 13.75 -30.429688 13.703125 -31.234375 13.609375 -31.765625 C 13.515625 -32.304688 13.335938 -32.679688 13.078125 -32.890625 C 12.828125 -33.097656 12.46875 -33.203125 12 -33.203125 L 10.09375 -33.203125 L 10.09375 -25.65625 Z M 12.046875 -25.65625 "/></g></g></g><g fill="#ffffff" fill-opacity="1"><g transform="translate(344.074874, 121.287812)"><g><path d="M 1.796875 0 L 1.796875 -40.734375 L 18.109375 -40.734375 L 18.109375 -32.859375 L 10.09375 -32.859375 L 10.09375 -24.9375 L 17.78125 -24.9375 L 17.78125 -17.265625 L 10.09375 -17.265625 L 10.09375 -7.921875 L 18.640625 -7.921875 L 18.640625 0 Z M 1.796875 0 "/></g></g></g><g fill="#ffffff" fill-opacity="1"><g transform="translate(157.86078, 147.529167)"><g><path d="M 2.734375 -1.828125 L 2.734375 0 L 1.78125 0 L 1.78125 -1.828125 L 0.109375 -4.75 L 1.1875 -4.75 L 2.296875 -2.671875 L 3.359375 -4.75 L 4.40625 -4.75 Z M 2.734375 -1.828125 "/></g></g></g><g fill="#ffffff" fill-opacity="1"><g transform="translate(162.579211, 147.529167)"><g><path d="M 2.6875 -4.84375 C 3.414062 -4.84375 3.988281 -4.617188 4.40625 -4.171875 C 4.832031 -3.722656 5.046875 -3.125 5.046875 -2.375 C 5.046875 -1.625 4.832031 -1.023438 4.40625 -0.578125 C 3.988281 -0.128906 3.414062 0.09375 2.6875 0.09375 C 1.96875 0.09375 1.394531 -0.128906 0.96875 -0.578125 C 0.550781 -1.023438 0.34375 -1.625 0.34375 -2.375 C 0.34375 -3.125 0.550781 -3.722656 0.96875 -4.171875 C 1.394531 -4.617188 1.96875 -4.84375 2.6875 -4.84375 Z M 1.703125 -1.078125 C 1.941406 -0.765625 2.269531 -0.609375 2.6875 -0.609375 C 3.113281 -0.609375 3.445312 -0.765625 3.6875 -1.078125 C 3.925781 -1.390625 4.046875 -1.820312 4.046875 -2.375 C 4.046875 -2.925781 3.925781 -3.351562 3.6875 -3.65625 C 3.445312 -3.96875 3.113281 -4.125 2.6875 -4.125 C 2.269531 -4.125 1.941406 -3.96875 1.703125 -3.65625 C 1.460938 -3.351562 1.34375 -2.925781 1.34375 -2.375 C 1.34375 -1.820312 1.460938 -1.390625 1.703125 -1.078125 Z M 1.703125 -1.078125 "/></g></g></g><g fill="#ffffff" fill-opacity="1"><g transform="translate(168.252319, 147.529167)"><g><path d="M 4.46875 -4.75 L 4.46875 -1.9375 C 4.46875 -1.707031 4.460938 -1.519531 4.453125 -1.375 C 4.421875 -0.945312 4.242188 -0.59375 3.921875 -0.3125 C 3.597656 -0.0390625 3.128906 0.09375 2.515625 0.09375 C 1.878906 0.09375 1.398438 -0.0390625 1.078125 -0.3125 C 0.765625 -0.59375 0.59375 -0.945312 0.5625 -1.375 C 0.550781 -1.519531 0.546875 -1.707031 0.546875 -1.9375 L 0.546875 -4.75 L 1.484375 -4.75 L 1.484375 -1.828125 C 1.484375 -1.671875 1.488281 -1.554688 1.5 -1.484375 C 1.53125 -1.210938 1.628906 -1 1.796875 -0.84375 C 1.960938 -0.6875 2.203125 -0.609375 2.515625 -0.609375 C 2.816406 -0.609375 3.050781 -0.6875 3.21875 -0.84375 C 3.382812 -1 3.476562 -1.210938 3.5 -1.484375 C 3.507812 -1.554688 3.515625 -1.671875 3.515625 -1.828125 L 3.515625 -4.75 Z M 4.46875 -4.75 "/></g></g></g><g fill="#ffffff" fill-opacity="1"><g transform="translate(173.492729, 147.529167)"><g><path d="M 4.046875 -1.203125 C 4.109375 -0.628906 4.222656 -0.226562 4.390625 0 L 3.359375 0 C 3.242188 -0.3125 3.164062 -0.664062 3.125 -1.0625 C 3.0625 -1.59375 2.847656 -1.875 2.484375 -1.90625 C 2.390625 -1.90625 2.265625 -1.90625 2.109375 -1.90625 L 1.5625 -1.90625 L 1.5625 0 L 0.609375 0 L 0.609375 -4.75 L 2.34375 -4.75 C 2.601562 -4.75 2.832031 -4.734375 3.03125 -4.703125 C 3.40625 -4.660156 3.707031 -4.535156 3.9375 -4.328125 C 4.164062 -4.128906 4.28125 -3.835938 4.28125 -3.453125 C 4.28125 -3.148438 4.195312 -2.898438 4.03125 -2.703125 C 3.863281 -2.515625 3.632812 -2.378906 3.34375 -2.296875 C 3.75 -2.140625 3.984375 -1.773438 4.046875 -1.203125 Z M 1.5625 -2.625 L 2.21875 -2.625 C 2.40625 -2.625 2.53125 -2.625 2.59375 -2.625 C 3.050781 -2.664062 3.28125 -2.894531 3.28125 -3.3125 C 3.28125 -3.519531 3.222656 -3.675781 3.109375 -3.78125 C 3.003906 -3.882812 2.851562 -3.953125 2.65625 -3.984375 C 2.539062 -3.992188 2.40625 -4 2.25 -4 L 1.5625 -4 Z M 1.5625 -2.625 "/></g></g></g><g fill="#ffffff" fill-opacity="1"><g transform="translate(178.403466, 147.529167)"><g/></g></g><g fill="#ffffff" fill-opacity="1"><g transform="translate(180.154847, 147.529167)"><g><path d="M 4.03125 -0.796875 L 4.03125 0 L 0.609375 0 L 0.609375 -4.75 L 1.5625 -4.75 L 1.5625 -0.796875 Z M 4.03125 -0.796875 "/></g></g></g><g fill="#ffffff" fill-opacity="1"><g transform="translate(184.722174, 147.529167)"><g><path d="M 2.6875 -4.84375 C 3.414062 -4.84375 3.988281 -4.617188 4.40625 -4.171875 C 4.832031 -3.722656 5.046875 -3.125 5.046875 -2.375 C 5.046875 -1.625 4.832031 -1.023438 4.40625 -0.578125 C 3.988281 -0.128906 3.414062 0.09375 2.6875 0.09375 C 1.96875 0.09375 1.394531 -0.128906 0.96875 -0.578125 C 0.550781 -1.023438 0.34375 -1.625 0.34375 -2.375 C 0.34375 -3.125 0.550781 -3.722656 0.96875 -4.171875 C 1.394531 -4.617188 1.96875 -4.84375 2.6875 -4.84375 Z M 1.703125 -1.078125 C 1.941406 -0.765625 2.269531 -0.609375 2.6875 -0.609375 C 3.113281 -0.609375 3.445312 -0.765625 3.6875 -1.078125 C 3.925781 -1.390625 4.046875 -1.820312 4.046875 -2.375 C 4.046875 -2.925781 3.925781 -3.351562 3.6875 -3.65625 C 3.445312 -3.96875 3.113281 -4.125 2.6875 -4.125 C 2.269531 -4.125 1.941406 -3.96875 1.703125 -3.65625 C 1.460938 -3.351562 1.34375 -2.925781 1.34375 -2.375 C 1.34375 -1.820312 1.460938 -1.390625 1.703125 -1.078125 Z M 1.703125 -1.078125 "/></g></g></g><g fill="#ffffff" fill-opacity="1"><g transform="translate(190.395283, 147.529167)"><g><path d="M 2.734375 -1.828125 L 2.734375 0 L 1.78125 0 L 1.78125 -1.828125 L 0.109375 -4.75 L 1.1875 -4.75 L 2.296875 -2.671875 L 3.359375 -4.75 L 4.40625 -4.75 Z M 2.734375 -1.828125 "/></g></g></g><g fill="#ffffff" fill-opacity="1"><g transform="translate(195.113715, 147.529167)"><g><path d="M 3.1875 -1.4375 L 1.59375 -1.4375 L 1.109375 0 L 0.109375 0 L 1.8125 -4.75 L 3 -4.75 L 4.6875 0 L 3.65625 0 Z M 2.390625 -3.9375 L 1.828125 -2.171875 L 2.9375 -2.171875 Z M 2.390625 -3.9375 "/></g></g></g><g fill="#ffffff" fill-opacity="1"><g transform="translate(200.175557, 147.529167)"><g><path d="M 4.03125 -0.796875 L 4.03125 0 L 0.609375 0 L 0.609375 -4.75 L 1.5625 -4.75 L 1.5625 -0.796875 Z M 4.03125 -0.796875 "/></g></g></g><g fill="#ffffff" fill-opacity="1"><g transform="translate(204.742886, 147.529167)"><g/></g></g><g fill="#ffffff" fill-opacity="1"><g transform="translate(206.494268, 147.529167)"><g><path d="M 1.5625 -4 L 1.5625 -2.75 L 3.71875 -2.75 L 3.71875 -2 L 1.5625 -2 L 1.5625 0 L 0.609375 0 L 0.609375 -4.75 L 3.96875 -4.75 L 3.96875 -4 Z M 1.5625 -4 "/></g></g></g><g fill="#ffffff" fill-opacity="1"><g transform="translate(210.986046, 147.529167)"><g><path d="M 4.046875 -1.203125 C 4.109375 -0.628906 4.222656 -0.226562 4.390625 0 L 3.359375 0 C 3.242188 -0.3125 3.164062 -0.664062 3.125 -1.0625 C 3.0625 -1.59375 2.847656 -1.875 2.484375 -1.90625 C 2.390625 -1.90625 2.265625 -1.90625 2.109375 -1.90625 L 1.5625 -1.90625 L 1.5625 0 L 0.609375 0 L 0.609375 -4.75 L 2.34375 -4.75 C 2.601562 -4.75 2.832031 -4.734375 3.03125 -4.703125 C 3.40625 -4.660156 3.707031 -4.535156 3.9375 -4.328125 C 4.164062 -4.128906 4.28125 -3.835938 4.28125 -3.453125 C 4.28125 -3.148438 4.195312 -2.898438 4.03125 -2.703125 C 3.863281 -2.515625 3.632812 -2.378906 3.34375 -2.296875 C 3.75 -2.140625 3.984375 -1.773438 4.046875 -1.203125 Z M 1.5625 -2.625 L 2.21875 -2.625 C 2.40625 -2.625 2.53125 -2.625 2.59375 -2.625 C 3.050781 -2.664062 3.28125 -2.894531 3.28125 -3.3125 C 3.28125 -3.519531 3.222656 -3.675781 3.109375 -3.78125 C 3.003906 -3.882812 2.851562 -3.953125 2.65625 -3.984375 C 2.539062 -3.992188 2.40625 -4 2.25 -4 L 1.5625 -4 Z M 1.5625 -2.625 "/></g></g></g><g fill="#ffffff" fill-opacity="1"><g transform="translate(215.896784, 147.529167)"><g><path d="M 1.5625 0 L 0.609375 0 L 0.609375 -4.75 L 1.5625 -4.75 Z M 1.5625 0 "/></g></g></g><g fill="#ffffff" fill-opacity="1"><g transform="translate(218.321249, 147.529167)"><g><path d="M 4.03125 -0.75 L 4.03125 0 L 0.609375 0 L 0.609375 -4.75 L 3.96875 -4.75 L 3.96875 -4 L 1.5625 -4 L 1.5625 -2.75 L 3.796875 -2.75 L 3.796875 -2 L 1.5625 -2 L 1.5625 -0.75 Z M 4.03125 -0.75 "/></g></g></g><g fill="#ffffff" fill-opacity="1"><g transform="translate(222.971002, 147.529167)"><g><path d="M 4.78125 0 L 3.484375 0 L 1.53125 -3.609375 C 1.550781 -3.171875 1.5625 -2.679688 1.5625 -2.140625 L 1.5625 0 L 0.609375 0 L 0.609375 -4.75 L 1.875 -4.75 L 3.859375 -1.078125 C 3.835938 -1.503906 3.828125 -2 3.828125 -2.5625 L 3.828125 -4.75 L 4.765625 -4.75 Z M 4.78125 0 "/></g></g></g><g fill="#ffffff" fill-opacity="1"><g transform="translate(228.609772, 147.529167)"><g><path d="M 2.859375 -4.71875 C 3.441406 -4.644531 3.910156 -4.414062 4.265625 -4.03125 C 4.628906 -3.65625 4.8125 -3.125 4.8125 -2.4375 C 4.8125 -1.738281 4.625 -1.175781 4.25 -0.75 C 3.882812 -0.332031 3.414062 -0.09375 2.84375 -0.03125 C 2.675781 -0.0078125 2.472656 0 2.234375 0 L 0.609375 0 L 0.609375 -4.75 L 2.25 -4.75 C 2.488281 -4.75 2.691406 -4.738281 2.859375 -4.71875 Z M 2.625 -0.765625 C 2.988281 -0.816406 3.273438 -0.984375 3.484375 -1.265625 C 3.691406 -1.554688 3.796875 -1.941406 3.796875 -2.421875 C 3.796875 -2.878906 3.691406 -3.238281 3.484375 -3.5 C 3.285156 -3.769531 3.003906 -3.925781 2.640625 -3.96875 C 2.503906 -3.988281 2.335938 -4 2.140625 -4 L 1.5625 -4 L 1.5625 -0.75 L 2.125 -0.75 C 2.351562 -0.75 2.519531 -0.753906 2.625 -0.765625 Z M 2.625 -0.765625 "/></g></g></g><g fill="#ffffff" fill-opacity="1"><g transform="translate(234.049358, 147.529167)"><g/></g></g><g fill="#ff7a28" fill-opacity="1"><g transform="translate(235.806807, 147.529167)"><g><path d="M 1.5625 -4 L 1.5625 -2.75 L 3.71875 -2.75 L 3.71875 -2 L 1.5625 -2 L 1.5625 0 L 0.609375 0 L 0.609375 -4.75 L 3.96875 -4.75 L 3.96875 -4 Z M 1.5625 -4 "/></g></g></g><g fill="#ff7a28" fill-opacity="1"><g transform="translate(240.298583, 147.529167)"><g><path d="M 2.6875 -4.84375 C 3.414062 -4.84375 3.988281 -4.617188 4.40625 -4.171875 C 4.832031 -3.722656 5.046875 -3.125 5.046875 -2.375 C 5.046875 -1.625 4.832031 -1.023438 4.40625 -0.578125 C 3.988281 -0.128906 3.414062 0.09375 2.6875 0.09375 C 1.96875 0.09375 1.394531 -0.128906 0.96875 -0.578125 C 0.550781 -1.023438 0.34375 -1.625 0.34375 -2.375 C 0.34375 -3.125 0.550781 -3.722656 0.96875 -4.171875 C 1.394531 -4.617188 1.96875 -4.84375 2.6875 -4.84375 Z M 1.703125 -1.078125 C 1.941406 -0.765625 2.269531 -0.609375 2.6875 -0.609375 C 3.113281 -0.609375 3.445312 -0.765625 3.6875 -1.078125 C 3.925781 -1.390625 4.046875 -1.820312 4.046875 -2.375 C 4.046875 -2.925781 3.925781 -3.351562 3.6875 -3.65625 C 3.445312 -3.96875 3.113281 -4.125 2.6875 -4.125 C 2.269531 -4.125 1.941406 -3.96875 1.703125 -3.65625 C 1.460938 -3.351562 1.34375 -2.925781 1.34375 -2.375 C 1.34375 -1.820312 1.460938 -1.390625 1.703125 -1.078125 Z M 1.703125 -1.078125 "/></g></g></g><g fill="#ff7a28" fill-opacity="1"><g transform="translate(245.971691, 147.529167)"><g><path d="M 4.046875 -1.203125 C 4.109375 -0.628906 4.222656 -0.226562 4.390625 0 L 3.359375 0 C 3.242188 -0.3125 3.164062 -0.664062 3.125 -1.0625 C 3.0625 -1.59375 2.847656 -1.875 2.484375 -1.90625 C 2.390625 -1.90625 2.265625 -1.90625 2.109375 -1.90625 L 1.5625 -1.90625 L 1.5625 0 L 0.609375 0 L 0.609375 -4.75 L 2.34375 -4.75 C 2.601562 -4.75 2.832031 -4.734375 3.03125 -4.703125 C 3.40625 -4.660156 3.707031 -4.535156 3.9375 -4.328125 C 4.164062 -4.128906 4.28125 -3.835938 4.28125 -3.453125 C 4.28125 -3.148438 4.195312 -2.898438 4.03125 -2.703125 C 3.863281 -2.515625 3.632812 -2.378906 3.34375 -2.296875 C 3.75 -2.140625 3.984375 -1.773438 4.046875 -1.203125 Z M 1.5625 -2.625 L 2.21875 -2.625 C 2.40625 -2.625 2.53125 -2.625 2.59375 -2.625 C 3.050781 -2.664062 3.28125 -2.894531 3.28125 -3.3125 C 3.28125 -3.519531 3.222656 -3.675781 3.109375 -3.78125 C 3.003906 -3.882812 2.851562 -3.953125 2.65625 -3.984375 C 2.539062 -3.992188 2.40625 -4 2.25 -4 L 1.5625 -4 Z M 1.5625 -2.625 "/></g></g></g><g fill="#ff7a28" fill-opacity="1"><g transform="translate(250.882428, 147.529167)"><g/></g></g><g fill="#ff7a28" fill-opacity="1"><g transform="translate(252.63381, 147.529167)"><g><path d="M 5.734375 -4.75 L 5.734375 0 L 4.78125 0 L 4.78125 -2.1875 C 4.78125 -2.945312 4.785156 -3.488281 4.796875 -3.8125 C 4.660156 -3.257812 4.515625 -2.722656 4.359375 -2.203125 L 3.6875 0 L 2.65625 0 L 1.96875 -2.203125 C 1.800781 -2.785156 1.660156 -3.320312 1.546875 -3.8125 C 1.554688 -3.476562 1.5625 -2.9375 1.5625 -2.1875 L 1.5625 0 L 0.609375 0 L 0.609375 -4.75 L 2.109375 -4.75 L 3.1875 -0.875 L 4.25 -4.75 Z M 5.734375 -4.75 "/></g></g></g><g fill="#ff7a28" fill-opacity="1"><g transform="translate(259.213511, 147.529167)"><g><path d="M 2.6875 -4.84375 C 3.414062 -4.84375 3.988281 -4.617188 4.40625 -4.171875 C 4.832031 -3.722656 5.046875 -3.125 5.046875 -2.375 C 5.046875 -1.625 4.832031 -1.023438 4.40625 -0.578125 C 3.988281 -0.128906 3.414062 0.09375 2.6875 0.09375 C 1.96875 0.09375 1.394531 -0.128906 0.96875 -0.578125 C 0.550781 -1.023438 0.34375 -1.625 0.34375 -2.375 C 0.34375 -3.125 0.550781 -3.722656 0.96875 -4.171875 C 1.394531 -4.617188 1.96875 -4.84375 2.6875 -4.84375 Z M 1.703125 -1.078125 C 1.941406 -0.765625 2.269531 -0.609375 2.6875 -0.609375 C 3.113281 -0.609375 3.445312 -0.765625 3.6875 -1.078125 C 3.925781 -1.390625 4.046875 -1.820312 4.046875 -2.375 C 4.046875 -2.925781 3.925781 -3.351562 3.6875 -3.65625 C 3.445312 -3.96875 3.113281 -4.125 2.6875 -4.125 C 2.269531 -4.125 1.941406 -3.96875 1.703125 -3.65625 C 1.460938 -3.351562 1.34375 -2.925781 1.34375 -2.375 C 1.34375 -1.820312 1.460938 -1.390625 1.703125 -1.078125 Z M 1.703125 -1.078125 "/></g></g></g><g fill="#ff7a28" fill-opacity="1"><g transform="translate(264.88662, 147.529167)"><g><path d="M 4.328125 -4 L 2.71875 -4 L 2.71875 0 L 1.765625 0 L 1.765625 -4 L 0.15625 -4 L 0.15625 -4.75 L 4.328125 -4.75 Z M 4.328125 -4 "/></g></g></g><g fill="#ff7a28" fill-opacity="1"><g transform="translate(269.584451, 147.529167)"><g><path d="M 2.6875 -4.84375 C 3.414062 -4.84375 3.988281 -4.617188 4.40625 -4.171875 C 4.832031 -3.722656 5.046875 -3.125 5.046875 -2.375 C 5.046875 -1.625 4.832031 -1.023438 4.40625 -0.578125 C 3.988281 -0.128906 3.414062 0.09375 2.6875 0.09375 C 1.96875 0.09375 1.394531 -0.128906 0.96875 -0.578125 C 0.550781 -1.023438 0.34375 -1.625 0.34375 -2.375 C 0.34375 -3.125 0.550781 -3.722656 0.96875 -4.171875 C 1.394531 -4.617188 1.96875 -4.84375 2.6875 -4.84375 Z M 1.703125 -1.078125 C 1.941406 -0.765625 2.269531 -0.609375 2.6875 -0.609375 C 3.113281 -0.609375 3.445312 -0.765625 3.6875 -1.078125 C 3.925781 -1.390625 4.046875 -1.820312 4.046875 -2.375 C 4.046875 -2.925781 3.925781 -3.351562 3.6875 -3.65625 C 3.445312 -3.96875 3.113281 -4.125 2.6875 -4.125 C 2.269531 -4.125 1.941406 -3.96875 1.703125 -3.65625 C 1.460938 -3.351562 1.34375 -2.925781 1.34375 -2.375 C 1.34375 -1.820312 1.460938 -1.390625 1.703125 -1.078125 Z M 1.703125 -1.078125 "/></g></g></g><g fill="#ff7a28" fill-opacity="1"><g transform="translate(275.25756, 147.529167)"><g><path d="M 4.046875 -1.203125 C 4.109375 -0.628906 4.222656 -0.226562 4.390625 0 L 3.359375 0 C 3.242188 -0.3125 3.164062 -0.664062 3.125 -1.0625 C 3.0625 -1.59375 2.847656 -1.875 2.484375 -1.90625 C 2.390625 -1.90625 2.265625 -1.90625 2.109375 -1.90625 L 1.5625 -1.90625 L 1.5625 0 L 0.609375 0 L 0.609375 -4.75 L 2.34375 -4.75 C 2.601562 -4.75 2.832031 -4.734375 3.03125 -4.703125 C 3.40625 -4.660156 3.707031 -4.535156 3.9375 -4.328125 C 4.164062 -4.128906 4.28125 -3.835938 4.28125 -3.453125 C 4.28125 -3.148438 4.195312 -2.898438 4.03125 -2.703125 C 3.863281 -2.515625 3.632812 -2.378906 3.34375 -2.296875 C 3.75 -2.140625 3.984375 -1.773438 4.046875 -1.203125 Z M 1.5625 -2.625 L 2.21875 -2.625 C 2.40625 -2.625 2.53125 -2.625 2.59375 -2.625 C 3.050781 -2.664062 3.28125 -2.894531 3.28125 -3.3125 C 3.28125 -3.519531 3.222656 -3.675781 3.109375 -3.78125 C 3.003906 -3.882812 2.851562 -3.953125 2.65625 -3.984375 C 2.539062 -3.992188 2.40625 -4 2.25 -4 L 1.5625 -4 Z M 1.5625 -2.625 "/></g></g></g><g fill="#ff7a28" fill-opacity="1"><g transform="translate(280.168298, 147.529167)"><g><path d="M 2.640625 -4.84375 C 3.265625 -4.84375 3.75 -4.691406 4.09375 -4.390625 C 4.445312 -4.085938 4.648438 -3.691406 4.703125 -3.203125 L 4.703125 -3.140625 L 3.75 -3.140625 L 3.734375 -3.203125 C 3.609375 -3.816406 3.242188 -4.125 2.640625 -4.125 C 2.253906 -4.125 1.941406 -3.96875 1.703125 -3.65625 C 1.472656 -3.351562 1.359375 -2.9375 1.359375 -2.40625 C 1.359375 -1.832031 1.472656 -1.390625 1.703125 -1.078125 C 1.941406 -0.765625 2.25 -0.609375 2.625 -0.609375 C 2.925781 -0.609375 3.164062 -0.691406 3.34375 -0.859375 C 3.53125 -1.035156 3.65625 -1.273438 3.71875 -1.578125 L 3.734375 -1.640625 L 4.671875 -1.640625 L 4.671875 -1.578125 C 4.617188 -1.054688 4.40625 -0.644531 4.03125 -0.34375 C 3.664062 -0.0507812 3.179688 0.09375 2.578125 0.09375 C 1.910156 0.09375 1.367188 -0.125 0.953125 -0.5625 C 0.546875 -1 0.34375 -1.59375 0.34375 -2.34375 C 0.34375 -3.101562 0.554688 -3.707031 0.984375 -4.15625 C 1.421875 -4.613281 1.972656 -4.84375 2.640625 -4.84375 Z M 2.640625 -4.84375 "/></g></g></g><g fill="#ff7a28" fill-opacity="1"><g transform="translate(285.5186, 147.529167)"><g><path d="M 2.734375 -1.828125 L 2.734375 0 L 1.78125 0 L 1.78125 -1.828125 L 0.109375 -4.75 L 1.1875 -4.75 L 2.296875 -2.671875 L 3.359375 -4.75 L 4.40625 -4.75 Z M 2.734375 -1.828125 "/></g></g></g><g fill="#ff7a28" fill-opacity="1"><g transform="translate(290.237032, 147.529167)"><g><path d="M 2.640625 -4.84375 C 3.265625 -4.84375 3.75 -4.691406 4.09375 -4.390625 C 4.445312 -4.085938 4.648438 -3.691406 4.703125 -3.203125 L 4.703125 -3.140625 L 3.75 -3.140625 L 3.734375 -3.203125 C 3.609375 -3.816406 3.242188 -4.125 2.640625 -4.125 C 2.253906 -4.125 1.941406 -3.96875 1.703125 -3.65625 C 1.472656 -3.351562 1.359375 -2.9375 1.359375 -2.40625 C 1.359375 -1.832031 1.472656 -1.390625 1.703125 -1.078125 C 1.941406 -0.765625 2.25 -0.609375 2.625 -0.609375 C 2.925781 -0.609375 3.164062 -0.691406 3.34375 -0.859375 C 3.53125 -1.035156 3.65625 -1.273438 3.71875 -1.578125 L 3.734375 -1.640625 L 4.671875 -1.640625 L 4.671875 -1.578125 C 4.617188 -1.054688 4.40625 -0.644531 4.03125 -0.34375 C 3.664062 -0.0507812 3.179688 0.09375 2.578125 0.09375 C 1.910156 0.09375 1.367188 -0.125 0.953125 -0.5625 C 0.546875 -1 0.34375 -1.59375 0.34375 -2.34375 C 0.34375 -3.101562 0.554688 -3.707031 0.984375 -4.15625 C 1.421875 -4.613281 1.972656 -4.84375 2.640625 -4.84375 Z M 2.640625 -4.84375 "/></g></g></g><g fill="#ff7a28" fill-opacity="1"><g transform="translate(295.587333, 147.529167)"><g><path d="M 4.03125 -0.796875 L 4.03125 0 L 0.609375 0 L 0.609375 -4.75 L 1.5625 -4.75 L 1.5625 -0.796875 Z M 4.03125 -0.796875 "/></g></g></g><g fill="#ff7a28" fill-opacity="1"><g transform="translate(300.154662, 147.529167)"><g><path d="M 4.03125 -0.75 L 4.03125 0 L 0.609375 0 L 0.609375 -4.75 L 3.96875 -4.75 L 3.96875 -4 L 1.5625 -4 L 1.5625 -2.75 L 3.796875 -2.75 L 3.796875 -2 L 1.5625 -2 L 1.5625 -0.75 Z M 4.03125 -0.75 "/></g></g></g><g fill="#ff7a28" fill-opacity="1"><g transform="translate(304.804416, 147.529167)"><g/></g></g><g fill="#ff7a28" fill-opacity="1"><g transform="translate(306.555799, 147.529167)"><g><path d="M 5.734375 -4.75 L 5.734375 0 L 4.78125 0 L 4.78125 -2.1875 C 4.78125 -2.945312 4.785156 -3.488281 4.796875 -3.8125 C 4.660156 -3.257812 4.515625 -2.722656 4.359375 -2.203125 L 3.6875 0 L 2.65625 0 L 1.96875 -2.203125 C 1.800781 -2.785156 1.660156 -3.320312 1.546875 -3.8125 C 1.554688 -3.476562 1.5625 -2.9375 1.5625 -2.1875 L 1.5625 0 L 0.609375 0 L 0.609375 -4.75 L 2.109375 -4.75 L 3.1875 -0.875 L 4.25 -4.75 Z M 5.734375 -4.75 "/></g></g></g><g fill="#ff7a28" fill-opacity="1"><g transform="translate(313.135495, 147.529167)"><g><path d="M 3.1875 -1.4375 L 1.59375 -1.4375 L 1.109375 0 L 0.109375 0 L 1.8125 -4.75 L 3 -4.75 L 4.6875 0 L 3.65625 0 Z M 2.390625 -3.9375 L 1.828125 -2.171875 L 2.9375 -2.171875 Z M 2.390625 -3.9375 "/></g></g></g><g fill="#ff7a28" fill-opacity="1"><g transform="translate(318.197333, 147.529167)"><g><path d="M 1.5625 0 L 0.609375 0 L 0.609375 -4.75 L 1.5625 -4.75 Z M 1.5625 0 "/></g></g></g><g fill="#ff7a28" fill-opacity="1"><g transform="translate(320.621793, 147.529167)"><g><path d="M 4.78125 0 L 3.484375 0 L 1.53125 -3.609375 C 1.550781 -3.171875 1.5625 -2.679688 1.5625 -2.140625 L 1.5625 0 L 0.609375 0 L 0.609375 -4.75 L 1.875 -4.75 L 3.859375 -1.078125 C 3.835938 -1.503906 3.828125 -2 3.828125 -2.5625 L 3.828125 -4.75 L 4.765625 -4.75 Z M 4.78125 0 "/></g></g></g><g fill="#ff7a28" fill-opacity="1"><g transform="translate(326.260558, 147.529167)"><g><path d="M 4.328125 -4 L 2.71875 -4 L 2.71875 0 L 1.765625 0 L 1.765625 -4 L 0.15625 -4 L 0.15625 -4.75 L 4.328125 -4.75 Z M 4.328125 -4 "/></g></g></g><g fill="#ff7a28" fill-opacity="1"><g transform="translate(330.958384, 147.529167)"><g><path d="M 4.03125 -0.75 L 4.03125 0 L 0.609375 0 L 0.609375 -4.75 L 3.96875 -4.75 L 3.96875 -4 L 1.5625 -4 L 1.5625 -2.75 L 3.796875 -2.75 L 3.796875 -2 L 1.5625 -2 L 1.5625 -0.75 Z M 4.03125 -0.75 "/></g></g></g><g fill="#ff7a28" fill-opacity="1"><g transform="translate(335.608133, 147.529167)"><g><path d="M 4.78125 0 L 3.484375 0 L 1.53125 -3.609375 C 1.550781 -3.171875 1.5625 -2.679688 1.5625 -2.140625 L 1.5625 0 L 0.609375 0 L 0.609375 -4.75 L 1.875 -4.75 L 3.859375 -1.078125 C 3.835938 -1.503906 3.828125 -2 3.828125 -2.5625 L 3.828125 -4.75 L 4.765625 -4.75 Z M 4.78125 0 "/></g></g></g><g fill="#ff7a28" fill-opacity="1"><g transform="translate(341.246899, 147.529167)"><g><path d="M 3.1875 -1.4375 L 1.59375 -1.4375 L 1.109375 0 L 0.109375 0 L 1.8125 -4.75 L 3 -4.75 L 4.6875 0 L 3.65625 0 Z M 2.390625 -3.9375 L 1.828125 -2.171875 L 2.9375 -2.171875 Z M 2.390625 -3.9375 "/></g></g></g><g fill="#ff7a28" fill-opacity="1"><g transform="translate(346.308736, 147.529167)"><g><path d="M 4.78125 0 L 3.484375 0 L 1.53125 -3.609375 C 1.550781 -3.171875 1.5625 -2.679688 1.5625 -2.140625 L 1.5625 0 L 0.609375 0 L 0.609375 -4.75 L 1.875 -4.75 L 3.859375 -1.078125 C 3.835938 -1.503906 3.828125 -2 3.828125 -2.5625 L 3.828125 -4.75 L 4.765625 -4.75 Z M 4.78125 0 "/></g></g></g><g fill="#ff7a28" fill-opacity="1"><g transform="translate(351.947502, 147.529167)"><g><path d="M 2.640625 -4.84375 C 3.265625 -4.84375 3.75 -4.691406 4.09375 -4.390625 C 4.445312 -4.085938 4.648438 -3.691406 4.703125 -3.203125 L 4.703125 -3.140625 L 3.75 -3.140625 L 3.734375 -3.203125 C 3.609375 -3.816406 3.242188 -4.125 2.640625 -4.125 C 2.253906 -4.125 1.941406 -3.96875 1.703125 -3.65625 C 1.472656 -3.351562 1.359375 -2.9375 1.359375 -2.40625 C 1.359375 -1.832031 1.472656 -1.390625 1.703125 -1.078125 C 1.941406 -0.765625 2.25 -0.609375 2.625 -0.609375 C 2.925781 -0.609375 3.164062 -0.691406 3.34375 -0.859375 C 3.53125 -1.035156 3.65625 -1.273438 3.71875 -1.578125 L 3.734375 -1.640625 L 4.671875 -1.640625 L 4.671875 -1.578125 C 4.617188 -1.054688 4.40625 -0.644531 4.03125 -0.34375 C 3.664062 -0.0507812 3.179688 0.09375 2.578125 0.09375 C 1.910156 0.09375 1.367188 -0.125 0.953125 -0.5625 C 0.546875 -1 0.34375 -1.59375 0.34375 -2.34375 C 0.34375 -3.101562 0.554688 -3.707031 0.984375 -4.15625 C 1.421875 -4.613281 1.972656 -4.84375 2.640625 -4.84375 Z M 2.640625 -4.84375 "/></g></g></g><g fill="#ff7a28" fill-opacity="1"><g transform="translate(357.297799, 147.529167)"><g><path d="M 4.03125 -0.75 L 4.03125 0 L 0.609375 0 L 0.609375 -4.75 L 3.96875 -4.75 L 3.96875 -4 L 1.5625 -4 L 1.5625 -2.75 L 3.796875 -2.75 L 3.796875 -2 L 1.5625 -2 L 1.5625 -0.75 Z M 4.03125 -0.75 "/></g></g></g><g fill="#ff7a28" fill-opacity="1"><g transform="translate(361.947548, 147.529167)"><g><path d="M 0.421875 -0.890625 C 0.523438 -1.003906 0.660156 -1.0625 0.828125 -1.0625 C 1.003906 -1.0625 1.144531 -1.003906 1.25 -0.890625 C 1.363281 -0.785156 1.421875 -0.648438 1.421875 -0.484375 C 1.421875 -0.316406 1.363281 -0.175781 1.25 -0.0625 C 1.144531 0.0390625 1.003906 0.09375 0.828125 0.09375 C 0.660156 0.09375 0.523438 0.0390625 0.421875 -0.0625 C 0.316406 -0.175781 0.265625 -0.316406 0.265625 -0.484375 C 0.265625 -0.648438 0.316406 -0.785156 0.421875 -0.890625 Z M 0.421875 -0.890625 "/></g></g></g></svg>