<svg xmlns="http://www.w3.org/2000/svg" xmlns:xlink="http://www.w3.org/1999/xlink" width="500" zoomAndPan="magnify" viewBox="0 0 375 187.499995" height="250" preserveAspectRatio="xMidYMid meet" version="1.0"><defs><g/><clipPath id="5d4b74856d"><path d="M 252 50 L 296.484375 50 L 296.484375 75 L 252 75 Z M 252 50 " clip-rule="nonzero"/></clipPath><clipPath id="3aeffd5372"><path d="M 93.773438 18.699219 L 196 18.699219 L 196 86 L 93.773438 86 Z M 93.773438 18.699219 " clip-rule="nonzero"/></clipPath></defs><g fill="#ff7a28" fill-opacity="1"><g transform="translate(93.773362, 129.418323)"><g><path d="M 1.796875 0 L 1.796875 -40.734375 L 14.234375 -40.734375 L 17.640625 -15.890625 L 21.0625 -40.734375 L 33.578125 -40.734375 L 33.578125 0 L 26.125 0 L 26.125 -29.359375 L 21.4375 0 L 14.125 0 L 9.15625 -29.359375 L 9.15625 0 Z M 1.796875 0 "/></g></g></g><g fill="#ff7a28" fill-opacity="1"><g transform="translate(131.697832, 129.418323)"><g><path d="M 11.53125 0.375 C 8.238281 0.375 5.738281 -0.625 4.03125 -2.625 C 2.320312 -4.632812 1.46875 -7.457031 1.46875 -11.09375 L 1.46875 -30.5 C 1.46875 -34 2.320312 -36.640625 4.03125 -38.421875 C 5.738281 -40.210938 8.238281 -41.109375 11.53125 -41.109375 C 14.8125 -41.109375 17.304688 -40.210938 19.015625 -38.421875 C 20.722656 -36.640625 21.578125 -34 21.578125 -30.5 L 21.578125 -11.09375 C 21.578125 -7.425781 20.722656 -4.597656 19.015625 -2.609375 C 17.304688 -0.617188 14.8125 0.375 11.53125 0.375 Z M 11.53125 -7.109375 C 12.25 -7.109375 12.734375 -7.425781 12.984375 -8.0625 C 13.242188 -8.695312 13.375 -9.582031 13.375 -10.71875 L 13.375 -30.640625 C 13.375 -31.523438 13.253906 -32.242188 13.015625 -32.796875 C 12.773438 -33.347656 12.296875 -33.625 11.578125 -33.625 C 10.210938 -33.625 9.53125 -32.597656 9.53125 -30.546875 L 9.53125 -10.671875 C 9.53125 -9.503906 9.671875 -8.617188 9.953125 -8.015625 C 10.242188 -7.410156 10.769531 -7.109375 11.53125 -7.109375 Z M 11.53125 -7.109375 "/></g></g></g><g fill="#ff7a28" fill-opacity="1"><g transform="translate(157.29705, 129.418323)"><g><path d="M 5.3125 0 L 5.3125 -32.90625 L 0.46875 -32.90625 L 0.46875 -40.734375 L 18.3125 -40.734375 L 18.3125 -32.90625 L 13.46875 -32.90625 L 13.46875 0 Z M 5.3125 0 "/></g></g></g><g fill="#ff7a28" fill-opacity="1"><g transform="translate(178.629832, 129.418323)"><g><path d="M 11.53125 0.375 C 8.238281 0.375 5.738281 -0.625 4.03125 -2.625 C 2.320312 -4.632812 1.46875 -7.457031 1.46875 -11.09375 L 1.46875 -30.5 C 1.46875 -34 2.320312 -36.640625 4.03125 -38.421875 C 5.738281 -40.210938 8.238281 -41.109375 11.53125 -41.109375 C 14.8125 -41.109375 17.304688 -40.210938 19.015625 -38.421875 C 20.722656 -36.640625 21.578125 -34 21.578125 -30.5 L 21.578125 -11.09375 C 21.578125 -7.425781 20.722656 -4.597656 19.015625 -2.609375 C 17.304688 -0.617188 14.8125 0.375 11.53125 0.375 Z M 11.53125 -7.109375 C 12.25 -7.109375 12.734375 -7.425781 12.984375 -8.0625 C 13.242188 -8.695312 13.375 -9.582031 13.375 -10.71875 L 13.375 -30.640625 C 13.375 -31.523438 13.253906 -32.242188 13.015625 -32.796875 C 12.773438 -33.347656 12.296875 -33.625 11.578125 -33.625 C 10.210938 -33.625 9.53125 -32.597656 9.53125 -30.546875 L 9.53125 -10.671875 C 9.53125 -9.503906 9.671875 -8.617188 9.953125 -8.015625 C 10.242188 -7.410156 10.769531 -7.109375 11.53125 -7.109375 Z M 11.53125 -7.109375 "/></g></g></g><g fill="#ffffff" fill-opacity="1"><g transform="translate(204.232702, 129.418323)"><g><path d="M 11.28125 0.375 C 8.3125 0.375 5.929688 -0.554688 4.140625 -2.421875 C 2.359375 -4.285156 1.46875 -6.84375 1.46875 -10.09375 L 1.46875 -28.875 C 1.46875 -32.925781 2.273438 -35.976562 3.890625 -38.03125 C 5.503906 -40.082031 8.03125 -41.109375 11.46875 -41.109375 C 14.476562 -41.109375 16.898438 -40.285156 18.734375 -38.640625 C 20.566406 -37.003906 21.484375 -34.632812 21.484375 -31.53125 L 21.484375 -24.515625 L 13.375 -24.515625 L 13.375 -30.546875 C 13.375 -31.710938 13.226562 -32.515625 12.9375 -32.953125 C 12.65625 -33.398438 12.164062 -33.625 11.46875 -33.625 C 10.75 -33.625 10.253906 -33.367188 9.984375 -32.859375 C 9.710938 -32.359375 9.578125 -31.617188 9.578125 -30.640625 L 9.578125 -10.203125 C 9.578125 -9.117188 9.734375 -8.332031 10.046875 -7.84375 C 10.367188 -7.351562 10.84375 -7.109375 11.46875 -7.109375 C 12.738281 -7.109375 13.375 -8.140625 13.375 -10.203125 L 13.375 -17.546875 L 21.578125 -17.546875 L 21.578125 -9.859375 C 21.578125 -3.035156 18.144531 0.375 11.28125 0.375 Z M 11.28125 0.375 "/></g></g></g><g fill="#ffffff" fill-opacity="1"><g transform="translate(229.263063, 129.418323)"><g><path d="M 0.71875 0 L 4.640625 -40.734375 L 18.453125 -40.734375 L 22.328125 0 L 14.609375 0 L 14.03125 -6.59375 L 9.109375 -6.59375 L 8.625 0 Z M 9.71875 -13.09375 L 13.421875 -13.09375 L 11.625 -33.8125 L 11.234375 -33.8125 Z M 9.71875 -13.09375 "/></g></g></g><g fill="#ffffff" fill-opacity="1"><g transform="translate(254.814881, 129.418323)"><g><path d="M 1.796875 -40.734375 L 14.328125 -40.734375 C 16.316406 -40.734375 17.851562 -40.28125 18.9375 -39.375 C 20.03125 -38.476562 20.765625 -37.210938 21.140625 -35.578125 C 21.523438 -33.953125 21.71875 -31.878906 21.71875 -29.359375 C 21.71875 -27.046875 21.414062 -25.238281 20.8125 -23.9375 C 20.21875 -22.644531 19.175781 -21.75 17.6875 -21.25 C 18.914062 -20.988281 19.804688 -20.367188 20.359375 -19.390625 C 20.921875 -18.410156 21.203125 -17.082031 21.203125 -15.40625 L 21.109375 0 L 13.140625 0 L 13.140625 -15.9375 C 13.140625 -17.070312 12.914062 -17.796875 12.46875 -18.109375 C 12.03125 -18.429688 11.222656 -18.59375 10.046875 -18.59375 L 10.046875 0 L 1.796875 0 Z M 12.046875 -25.65625 C 13.179688 -25.65625 13.75 -26.890625 13.75 -29.359375 C 13.75 -30.429688 13.703125 -31.234375 13.609375 -31.765625 C 13.515625 -32.304688 13.335938 -32.679688 13.078125 -32.890625 C 12.828125 -33.097656 12.46875 -33.203125 12 -33.203125 L 10.09375 -33.203125 L 10.09375 -25.65625 Z M 12.046875 -25.65625 "/></g></g></g><g fill="#ffffff" fill-opacity="1"><g transform="translate(279.987456, 129.418323)"><g><path d="M 1.796875 0 L 1.796875 -40.734375 L 18.109375 -40.734375 L 18.109375 -32.859375 L 10.09375 -32.859375 L 10.09375 -24.9375 L 17.78125 -24.9375 L 17.78125 -17.265625 L 10.09375 -17.265625 L 10.09375 -7.921875 L 18.640625 -7.921875 L 18.640625 0 Z M 1.796875 0 "/></g></g></g><g fill="#ffffff" fill-opacity="1"><g transform="translate(95.61165, 156.616177)"><g><path d="M 2.734375 -1.828125 L 2.734375 0 L 1.78125 0 L 1.78125 -1.828125 L 0.109375 -4.75 L 1.1875 -4.75 L 2.296875 -2.671875 L 3.359375 -4.75 L 4.40625 -4.75 Z M 2.734375 -1.828125 "/></g></g></g><g fill="#ffffff" fill-opacity="1"><g transform="translate(100.330081, 156.616177)"><g><path d="M 2.6875 -4.84375 C 3.414062 -4.84375 3.988281 -4.617188 4.40625 -4.171875 C 4.832031 -3.722656 5.046875 -3.125 5.046875 -2.375 C 5.046875 -1.625 4.832031 -1.023438 4.40625 -0.578125 C 3.988281 -0.128906 3.414062 0.09375 2.6875 0.09375 C 1.96875 0.09375 1.394531 -0.128906 0.96875 -0.578125 C 0.550781 -1.023438 0.34375 -1.625 0.34375 -2.375 C 0.34375 -3.125 0.550781 -3.722656 0.96875 -4.171875 C 1.394531 -4.617188 1.96875 -4.84375 2.6875 -4.84375 Z M 1.703125 -1.078125 C 1.941406 -0.765625 2.269531 -0.609375 2.6875 -0.609375 C 3.113281 -0.609375 3.445312 -0.765625 3.6875 -1.078125 C 3.925781 -1.390625 4.046875 -1.820312 4.046875 -2.375 C 4.046875 -2.925781 3.925781 -3.351562 3.6875 -3.65625 C 3.445312 -3.96875 3.113281 -4.125 2.6875 -4.125 C 2.269531 -4.125 1.941406 -3.96875 1.703125 -3.65625 C 1.460938 -3.351562 1.34375 -2.925781 1.34375 -2.375 C 1.34375 -1.820312 1.460938 -1.390625 1.703125 -1.078125 Z M 1.703125 -1.078125 "/></g></g></g><g fill="#ffffff" fill-opacity="1"><g transform="translate(106.003189, 156.616177)"><g><path d="M 4.46875 -4.75 L 4.46875 -1.9375 C 4.46875 -1.707031 4.460938 -1.519531 4.453125 -1.375 C 4.421875 -0.945312 4.242188 -0.59375 3.921875 -0.3125 C 3.597656 -0.0390625 3.128906 0.09375 2.515625 0.09375 C 1.878906 0.09375 1.398438 -0.0390625 1.078125 -0.3125 C 0.765625 -0.59375 0.59375 -0.945312 0.5625 -1.375 C 0.550781 -1.519531 0.546875 -1.707031 0.546875 -1.9375 L 0.546875 -4.75 L 1.484375 -4.75 L 1.484375 -1.828125 C 1.484375 -1.671875 1.488281 -1.554688 1.5 -1.484375 C 1.53125 -1.210938 1.628906 -1 1.796875 -0.84375 C 1.960938 -0.6875 2.203125 -0.609375 2.515625 -0.609375 C 2.816406 -0.609375 3.050781 -0.6875 3.21875 -0.84375 C 3.382812 -1 3.476562 -1.210938 3.5 -1.484375 C 3.507812 -1.554688 3.515625 -1.671875 3.515625 -1.828125 L 3.515625 -4.75 Z M 4.46875 -4.75 "/></g></g></g><g fill="#ffffff" fill-opacity="1"><g transform="translate(111.243599, 156.616177)"><g><path d="M 4.046875 -1.203125 C 4.109375 -0.628906 4.222656 -0.226562 4.390625 0 L 3.359375 0 C 3.242188 -0.3125 3.164062 -0.664062 3.125 -1.0625 C 3.0625 -1.59375 2.847656 -1.875 2.484375 -1.90625 C 2.390625 -1.90625 2.265625 -1.90625 2.109375 -1.90625 L 1.5625 -1.90625 L 1.5625 0 L 0.609375 0 L 0.609375 -4.75 L 2.34375 -4.75 C 2.601562 -4.75 2.832031 -4.734375 3.03125 -4.703125 C 3.40625 -4.660156 3.707031 -4.535156 3.9375 -4.328125 C 4.164062 -4.128906 4.28125 -3.835938 4.28125 -3.453125 C 4.28125 -3.148438 4.195312 -2.898438 4.03125 -2.703125 C 3.863281 -2.515625 3.632812 -2.378906 3.34375 -2.296875 C 3.75 -2.140625 3.984375 -1.773438 4.046875 -1.203125 Z M 1.5625 -2.625 L 2.21875 -2.625 C 2.40625 -2.625 2.53125 -2.625 2.59375 -2.625 C 3.050781 -2.664062 3.28125 -2.894531 3.28125 -3.3125 C 3.28125 -3.519531 3.222656 -3.675781 3.109375 -3.78125 C 3.003906 -3.882812 2.851562 -3.953125 2.65625 -3.984375 C 2.539062 -3.992188 2.40625 -4 2.25 -4 L 1.5625 -4 Z M 1.5625 -2.625 "/></g></g></g><g fill="#ffffff" fill-opacity="1"><g transform="translate(116.154336, 156.616177)"><g/></g></g><g fill="#ffffff" fill-opacity="1"><g transform="translate(117.905717, 156.616177)"><g><path d="M 4.03125 -0.796875 L 4.03125 0 L 0.609375 0 L 0.609375 -4.75 L 1.5625 -4.75 L 1.5625 -0.796875 Z M 4.03125 -0.796875 "/></g></g></g><g fill="#ffffff" fill-opacity="1"><g transform="translate(122.473044, 156.616177)"><g><path d="M 2.6875 -4.84375 C 3.414062 -4.84375 3.988281 -4.617188 4.40625 -4.171875 C 4.832031 -3.722656 5.046875 -3.125 5.046875 -2.375 C 5.046875 -1.625 4.832031 -1.023438 4.40625 -0.578125 C 3.988281 -0.128906 3.414062 0.09375 2.6875 0.09375 C 1.96875 0.09375 1.394531 -0.128906 0.96875 -0.578125 C 0.550781 -1.023438 0.34375 -1.625 0.34375 -2.375 C 0.34375 -3.125 0.550781 -3.722656 0.96875 -4.171875 C 1.394531 -4.617188 1.96875 -4.84375 2.6875 -4.84375 Z M 1.703125 -1.078125 C 1.941406 -0.765625 2.269531 -0.609375 2.6875 -0.609375 C 3.113281 -0.609375 3.445312 -0.765625 3.6875 -1.078125 C 3.925781 -1.390625 4.046875 -1.820312 4.046875 -2.375 C 4.046875 -2.925781 3.925781 -3.351562 3.6875 -3.65625 C 3.445312 -3.96875 3.113281 -4.125 2.6875 -4.125 C 2.269531 -4.125 1.941406 -3.96875 1.703125 -3.65625 C 1.460938 -3.351562 1.34375 -2.925781 1.34375 -2.375 C 1.34375 -1.820312 1.460938 -1.390625 1.703125 -1.078125 Z M 1.703125 -1.078125 "/></g></g></g><g fill="#ffffff" fill-opacity="1"><g transform="translate(128.146153, 156.616177)"><g><path d="M 2.734375 -1.828125 L 2.734375 0 L 1.78125 0 L 1.78125 -1.828125 L 0.109375 -4.75 L 1.1875 -4.75 L 2.296875 -2.671875 L 3.359375 -4.75 L 4.40625 -4.75 Z M 2.734375 -1.828125 "/></g></g></g><g fill="#ffffff" fill-opacity="1"><g transform="translate(132.864585, 156.616177)"><g><path d="M 3.1875 -1.4375 L 1.59375 -1.4375 L 1.109375 0 L 0.109375 0 L 1.8125 -4.75 L 3 -4.75 L 4.6875 0 L 3.65625 0 Z M 2.390625 -3.9375 L 1.828125 -2.171875 L 2.9375 -2.171875 Z M 2.390625 -3.9375 "/></g></g></g><g fill="#ffffff" fill-opacity="1"><g transform="translate(137.926427, 156.616177)"><g><path d="M 4.03125 -0.796875 L 4.03125 0 L 0.609375 0 L 0.609375 -4.75 L 1.5625 -4.75 L 1.5625 -0.796875 Z M 4.03125 -0.796875 "/></g></g></g><g fill="#ffffff" fill-opacity="1"><g transform="translate(142.493756, 156.616177)"><g/></g></g><g fill="#ffffff" fill-opacity="1"><g transform="translate(144.245138, 156.616177)"><g><path d="M 1.5625 -4 L 1.5625 -2.75 L 3.71875 -2.75 L 3.71875 -2 L 1.5625 -2 L 1.5625 0 L 0.609375 0 L 0.609375 -4.75 L 3.96875 -4.75 L 3.96875 -4 Z M 1.5625 -4 "/></g></g></g><g fill="#ffffff" fill-opacity="1"><g transform="translate(148.736916, 156.616177)"><g><path d="M 4.046875 -1.203125 C 4.109375 -0.628906 4.222656 -0.226562 4.390625 0 L 3.359375 0 C 3.242188 -0.3125 3.164062 -0.664062 3.125 -1.0625 C 3.0625 -1.59375 2.847656 -1.875 2.484375 -1.90625 C 2.390625 -1.90625 2.265625 -1.90625 2.109375 -1.90625 L 1.5625 -1.90625 L 1.5625 0 L 0.609375 0 L 0.609375 -4.75 L 2.34375 -4.75 C 2.601562 -4.75 2.832031 -4.734375 3.03125 -4.703125 C 3.40625 -4.660156 3.707031 -4.535156 3.9375 -4.328125 C 4.164062 -4.128906 4.28125 -3.835938 4.28125 -3.453125 C 4.28125 -3.148438 4.195312 -2.898438 4.03125 -2.703125 C 3.863281 -2.515625 3.632812 -2.378906 3.34375 -2.296875 C 3.75 -2.140625 3.984375 -1.773438 4.046875 -1.203125 Z M 1.5625 -2.625 L 2.21875 -2.625 C 2.40625 -2.625 2.53125 -2.625 2.59375 -2.625 C 3.050781 -2.664062 3.28125 -2.894531 3.28125 -3.3125 C 3.28125 -3.519531 3.222656 -3.675781 3.109375 -3.78125 C 3.003906 -3.882812 2.851562 -3.953125 2.65625 -3.984375 C 2.539062 -3.992188 2.40625 -4 2.25 -4 L 1.5625 -4 Z M 1.5625 -2.625 "/></g></g></g><g fill="#ffffff" fill-opacity="1"><g transform="translate(153.647654, 156.616177)"><g><path d="M 1.5625 0 L 0.609375 0 L 0.609375 -4.75 L 1.5625 -4.75 Z M 1.5625 0 "/></g></g></g><g fill="#ffffff" fill-opacity="1"><g transform="translate(156.072119, 156.616177)"><g><path d="M 4.03125 -0.75 L 4.03125 0 L 0.609375 0 L 0.609375 -4.75 L 3.96875 -4.75 L 3.96875 -4 L 1.5625 -4 L 1.5625 -2.75 L 3.796875 -2.75 L 3.796875 -2 L 1.5625 -2 L 1.5625 -0.75 Z M 4.03125 -0.75 "/></g></g></g><g fill="#ffffff" fill-opacity="1"><g transform="translate(160.721872, 156.616177)"><g><path d="M 4.78125 0 L 3.484375 0 L 1.53125 -3.609375 C 1.550781 -3.171875 1.5625 -2.679688 1.5625 -2.140625 L 1.5625 0 L 0.609375 0 L 0.609375 -4.75 L 1.875 -4.75 L 3.859375 -1.078125 C 3.835938 -1.503906 3.828125 -2 3.828125 -2.5625 L 3.828125 -4.75 L 4.765625 -4.75 Z M 4.78125 0 "/></g></g></g><g fill="#ffffff" fill-opacity="1"><g transform="translate(166.360643, 156.616177)"><g><path d="M 2.859375 -4.71875 C 3.441406 -4.644531 3.910156 -4.414062 4.265625 -4.03125 C 4.628906 -3.65625 4.8125 -3.125 4.8125 -2.4375 C 4.8125 -1.738281 4.625 -1.175781 4.25 -0.75 C 3.882812 -0.332031 3.414062 -0.09375 2.84375 -0.03125 C 2.675781 -0.0078125 2.472656 0 2.234375 0 L 0.609375 0 L 0.609375 -4.75 L 2.25 -4.75 C 2.488281 -4.75 2.691406 -4.738281 2.859375 -4.71875 Z M 2.625 -0.765625 C 2.988281 -0.816406 3.273438 -0.984375 3.484375 -1.265625 C 3.691406 -1.554688 3.796875 -1.941406 3.796875 -2.421875 C 3.796875 -2.878906 3.691406 -3.238281 3.484375 -3.5 C 3.285156 -3.769531 3.003906 -3.925781 2.640625 -3.96875 C 2.503906 -3.988281 2.335938 -4 2.140625 -4 L 1.5625 -4 L 1.5625 -0.75 L 2.125 -0.75 C 2.351562 -0.75 2.519531 -0.753906 2.625 -0.765625 Z M 2.625 -0.765625 "/></g></g></g><g fill="#ffffff" fill-opacity="1"><g transform="translate(171.800229, 156.616177)"><g/></g></g><g fill="#ff7a28" fill-opacity="1"><g transform="translate(173.557677, 156.616177)"><g><path d="M 1.5625 -4 L 1.5625 -2.75 L 3.71875 -2.75 L 3.71875 -2 L 1.5625 -2 L 1.5625 0 L 0.609375 0 L 0.609375 -4.75 L 3.96875 -4.75 L 3.96875 -4 Z M 1.5625 -4 "/></g></g></g><g fill="#ff7a28" fill-opacity="1"><g transform="translate(178.049453, 156.616177)"><g><path d="M 2.6875 -4.84375 C 3.414062 -4.84375 3.988281 -4.617188 4.40625 -4.171875 C 4.832031 -3.722656 5.046875 -3.125 5.046875 -2.375 C 5.046875 -1.625 4.832031 -1.023438 4.40625 -0.578125 C 3.988281 -0.128906 3.414062 0.09375 2.6875 0.09375 C 1.96875 0.09375 1.394531 -0.128906 0.96875 -0.578125 C 0.550781 -1.023438 0.34375 -1.625 0.34375 -2.375 C 0.34375 -3.125 0.550781 -3.722656 0.96875 -4.171875 C 1.394531 -4.617188 1.96875 -4.84375 2.6875 -4.84375 Z M 1.703125 -1.078125 C 1.941406 -0.765625 2.269531 -0.609375 2.6875 -0.609375 C 3.113281 -0.609375 3.445312 -0.765625 3.6875 -1.078125 C 3.925781 -1.390625 4.046875 -1.820312 4.046875 -2.375 C 4.046875 -2.925781 3.925781 -3.351562 3.6875 -3.65625 C 3.445312 -3.96875 3.113281 -4.125 2.6875 -4.125 C 2.269531 -4.125 1.941406 -3.96875 1.703125 -3.65625 C 1.460938 -3.351562 1.34375 -2.925781 1.34375 -2.375 C 1.34375 -1.820312 1.460938 -1.390625 1.703125 -1.078125 Z M 1.703125 -1.078125 "/></g></g></g><g fill="#ff7a28" fill-opacity="1"><g transform="translate(183.722561, 156.616177)"><g><path d="M 4.046875 -1.203125 C 4.109375 -0.628906 4.222656 -0.226562 4.390625 0 L 3.359375 0 C 3.242188 -0.3125 3.164062 -0.664062 3.125 -1.0625 C 3.0625 -1.59375 2.847656 -1.875 2.484375 -1.90625 C 2.390625 -1.90625 2.265625 -1.90625 2.109375 -1.90625 L 1.5625 -1.90625 L 1.5625 0 L 0.609375 0 L 0.609375 -4.75 L 2.34375 -4.75 C 2.601562 -4.75 2.832031 -4.734375 3.03125 -4.703125 C 3.40625 -4.660156 3.707031 -4.535156 3.9375 -4.328125 C 4.164062 -4.128906 4.28125 -3.835938 4.28125 -3.453125 C 4.28125 -3.148438 4.195312 -2.898438 4.03125 -2.703125 C 3.863281 -2.515625 3.632812 -2.378906 3.34375 -2.296875 C 3.75 -2.140625 3.984375 -1.773438 4.046875 -1.203125 Z M 1.5625 -2.625 L 2.21875 -2.625 C 2.40625 -2.625 2.53125 -2.625 2.59375 -2.625 C 3.050781 -2.664062 3.28125 -2.894531 3.28125 -3.3125 C 3.28125 -3.519531 3.222656 -3.675781 3.109375 -3.78125 C 3.003906 -3.882812 2.851562 -3.953125 2.65625 -3.984375 C 2.539062 -3.992188 2.40625 -4 2.25 -4 L 1.5625 -4 Z M 1.5625 -2.625 "/></g></g></g><g fill="#ff7a28" fill-opacity="1"><g transform="translate(188.633298, 156.616177)"><g/></g></g><g fill="#ff7a28" fill-opacity="1"><g transform="translate(190.38468, 156.616177)"><g><path d="M 5.734375 -4.75 L 5.734375 0 L 4.78125 0 L 4.78125 -2.1875 C 4.78125 -2.945312 4.785156 -3.488281 4.796875 -3.8125 C 4.660156 -3.257812 4.515625 -2.722656 4.359375 -2.203125 L 3.6875 0 L 2.65625 0 L 1.96875 -2.203125 C 1.800781 -2.785156 1.660156 -3.320312 1.546875 -3.8125 C 1.554688 -3.476562 1.5625 -2.9375 1.5625 -2.1875 L 1.5625 0 L 0.609375 0 L 0.609375 -4.75 L 2.109375 -4.75 L 3.1875 -0.875 L 4.25 -4.75 Z M 5.734375 -4.75 "/></g></g></g><g fill="#ff7a28" fill-opacity="1"><g transform="translate(196.964381, 156.616177)"><g><path d="M 2.6875 -4.84375 C 3.414062 -4.84375 3.988281 -4.617188 4.40625 -4.171875 C 4.832031 -3.722656 5.046875 -3.125 5.046875 -2.375 C 5.046875 -1.625 4.832031 -1.023438 4.40625 -0.578125 C 3.988281 -0.128906 3.414062 0.09375 2.6875 0.09375 C 1.96875 0.09375 1.394531 -0.128906 0.96875 -0.578125 C 0.550781 -1.023438 0.34375 -1.625 0.34375 -2.375 C 0.34375 -3.125 0.550781 -3.722656 0.96875 -4.171875 C 1.394531 -4.617188 1.96875 -4.84375 2.6875 -4.84375 Z M 1.703125 -1.078125 C 1.941406 -0.765625 2.269531 -0.609375 2.6875 -0.609375 C 3.113281 -0.609375 3.445312 -0.765625 3.6875 -1.078125 C 3.925781 -1.390625 4.046875 -1.820312 4.046875 -2.375 C 4.046875 -2.925781 3.925781 -3.351562 3.6875 -3.65625 C 3.445312 -3.96875 3.113281 -4.125 2.6875 -4.125 C 2.269531 -4.125 1.941406 -3.96875 1.703125 -3.65625 C 1.460938 -3.351562 1.34375 -2.925781 1.34375 -2.375 C 1.34375 -1.820312 1.460938 -1.390625 1.703125 -1.078125 Z M 1.703125 -1.078125 "/></g></g></g><g fill="#ff7a28" fill-opacity="1"><g transform="translate(202.63749, 156.616177)"><g><path d="M 4.328125 -4 L 2.71875 -4 L 2.71875 0 L 1.765625 0 L 1.765625 -4 L 0.15625 -4 L 0.15625 -4.75 L 4.328125 -4.75 Z M 4.328125 -4 "/></g></g></g><g fill="#ff7a28" fill-opacity="1"><g transform="translate(207.335321, 156.616177)"><g><path d="M 2.6875 -4.84375 C 3.414062 -4.84375 3.988281 -4.617188 4.40625 -4.171875 C 4.832031 -3.722656 5.046875 -3.125 5.046875 -2.375 C 5.046875 -1.625 4.832031 -1.023438 4.40625 -0.578125 C 3.988281 -0.128906 3.414062 0.09375 2.6875 0.09375 C 1.96875 0.09375 1.394531 -0.128906 0.96875 -0.578125 C 0.550781 -1.023438 0.34375 -1.625 0.34375 -2.375 C 0.34375 -3.125 0.550781 -3.722656 0.96875 -4.171875 C 1.394531 -4.617188 1.96875 -4.84375 2.6875 -4.84375 Z M 1.703125 -1.078125 C 1.941406 -0.765625 2.269531 -0.609375 2.6875 -0.609375 C 3.113281 -0.609375 3.445312 -0.765625 3.6875 -1.078125 C 3.925781 -1.390625 4.046875 -1.820312 4.046875 -2.375 C 4.046875 -2.925781 3.925781 -3.351562 3.6875 -3.65625 C 3.445312 -3.96875 3.113281 -4.125 2.6875 -4.125 C 2.269531 -4.125 1.941406 -3.96875 1.703125 -3.65625 C 1.460938 -3.351562 1.34375 -2.925781 1.34375 -2.375 C 1.34375 -1.820312 1.460938 -1.390625 1.703125 -1.078125 Z M 1.703125 -1.078125 "/></g></g></g><g fill="#ff7a28" fill-opacity="1"><g transform="translate(213.00843, 156.616177)"><g><path d="M 4.046875 -1.203125 C 4.109375 -0.628906 4.222656 -0.226562 4.390625 0 L 3.359375 0 C 3.242188 -0.3125 3.164062 -0.664062 3.125 -1.0625 C 3.0625 -1.59375 2.847656 -1.875 2.484375 -1.90625 C 2.390625 -1.90625 2.265625 -1.90625 2.109375 -1.90625 L 1.5625 -1.90625 L 1.5625 0 L 0.609375 0 L 0.609375 -4.75 L 2.34375 -4.75 C 2.601562 -4.75 2.832031 -4.734375 3.03125 -4.703125 C 3.40625 -4.660156 3.707031 -4.535156 3.9375 -4.328125 C 4.164062 -4.128906 4.28125 -3.835938 4.28125 -3.453125 C 4.28125 -3.148438 4.195312 -2.898438 4.03125 -2.703125 C 3.863281 -2.515625 3.632812 -2.378906 3.34375 -2.296875 C 3.75 -2.140625 3.984375 -1.773438 4.046875 -1.203125 Z M 1.5625 -2.625 L 2.21875 -2.625 C 2.40625 -2.625 2.53125 -2.625 2.59375 -2.625 C 3.050781 -2.664062 3.28125 -2.894531 3.28125 -3.3125 C 3.28125 -3.519531 3.222656 -3.675781 3.109375 -3.78125 C 3.003906 -3.882812 2.851562 -3.953125 2.65625 -3.984375 C 2.539062 -3.992188 2.40625 -4 2.25 -4 L 1.5625 -4 Z M 1.5625 -2.625 "/></g></g></g><g fill="#ff7a28" fill-opacity="1"><g transform="translate(217.919168, 156.616177)"><g><path d="M 2.640625 -4.84375 C 3.265625 -4.84375 3.75 -4.691406 4.09375 -4.390625 C 4.445312 -4.085938 4.648438 -3.691406 4.703125 -3.203125 L 4.703125 -3.140625 L 3.75 -3.140625 L 3.734375 -3.203125 C 3.609375 -3.816406 3.242188 -4.125 2.640625 -4.125 C 2.253906 -4.125 1.941406 -3.96875 1.703125 -3.65625 C 1.472656 -3.351562 1.359375 -2.9375 1.359375 -2.40625 C 1.359375 -1.832031 1.472656 -1.390625 1.703125 -1.078125 C 1.941406 -0.765625 2.25 -0.609375 2.625 -0.609375 C 2.925781 -0.609375 3.164062 -0.691406 3.34375 -0.859375 C 3.53125 -1.035156 3.65625 -1.273438 3.71875 -1.578125 L 3.734375 -1.640625 L 4.671875 -1.640625 L 4.671875 -1.578125 C 4.617188 -1.054688 4.40625 -0.644531 4.03125 -0.34375 C 3.664062 -0.0507812 3.179688 0.09375 2.578125 0.09375 C 1.910156 0.09375 1.367188 -0.125 0.953125 -0.5625 C 0.546875 -1 0.34375 -1.59375 0.34375 -2.34375 C 0.34375 -3.101562 0.554688 -3.707031 0.984375 -4.15625 C 1.421875 -4.613281 1.972656 -4.84375 2.640625 -4.84375 Z M 2.640625 -4.84375 "/></g></g></g><g fill="#ff7a28" fill-opacity="1"><g transform="translate(223.26947, 156.616177)"><g><path d="M 2.734375 -1.828125 L 2.734375 0 L 1.78125 0 L 1.78125 -1.828125 L 0.109375 -4.75 L 1.1875 -4.75 L 2.296875 -2.671875 L 3.359375 -4.75 L 4.40625 -4.75 Z M 2.734375 -1.828125 "/></g></g></g><g fill="#ff7a28" fill-opacity="1"><g transform="translate(227.987902, 156.616177)"><g><path d="M 2.640625 -4.84375 C 3.265625 -4.84375 3.75 -4.691406 4.09375 -4.390625 C 4.445312 -4.085938 4.648438 -3.691406 4.703125 -3.203125 L 4.703125 -3.140625 L 3.75 -3.140625 L 3.734375 -3.203125 C 3.609375 -3.816406 3.242188 -4.125 2.640625 -4.125 C 2.253906 -4.125 1.941406 -3.96875 1.703125 -3.65625 C 1.472656 -3.351562 1.359375 -2.9375 1.359375 -2.40625 C 1.359375 -1.832031 1.472656 -1.390625 1.703125 -1.078125 C 1.941406 -0.765625 2.25 -0.609375 2.625 -0.609375 C 2.925781 -0.609375 3.164062 -0.691406 3.34375 -0.859375 C 3.53125 -1.035156 3.65625 -1.273438 3.71875 -1.578125 L 3.734375 -1.640625 L 4.671875 -1.640625 L 4.671875 -1.578125 C 4.617188 -1.054688 4.40625 -0.644531 4.03125 -0.34375 C 3.664062 -0.0507812 3.179688 0.09375 2.578125 0.09375 C 1.910156 0.09375 1.367188 -0.125 0.953125 -0.5625 C 0.546875 -1 0.34375 -1.59375 0.34375 -2.34375 C 0.34375 -3.101562 0.554688 -3.707031 0.984375 -4.15625 C 1.421875 -4.613281 1.972656 -4.84375 2.640625 -4.84375 Z M 2.640625 -4.84375 "/></g></g></g><g fill="#ff7a28" fill-opacity="1"><g transform="translate(233.338203, 156.616177)"><g><path d="M 4.03125 -0.796875 L 4.03125 0 L 0.609375 0 L 0.609375 -4.75 L 1.5625 -4.75 L 1.5625 -0.796875 Z M 4.03125 -0.796875 "/></g></g></g><g fill="#ff7a28" fill-opacity="1"><g transform="translate(237.905532, 156.616177)"><g><path d="M 4.03125 -0.75 L 4.03125 0 L 0.609375 0 L 0.609375 -4.75 L 3.96875 -4.75 L 3.96875 -4 L 1.5625 -4 L 1.5625 -2.75 L 3.796875 -2.75 L 3.796875 -2 L 1.5625 -2 L 1.5625 -0.75 Z M 4.03125 -0.75 "/></g></g></g><g fill="#ff7a28" fill-opacity="1"><g transform="translate(242.555286, 156.616177)"><g/></g></g><g fill="#ff7a28" fill-opacity="1"><g transform="translate(244.306669, 156.616177)"><g><path d="M 5.734375 -4.75 L 5.734375 0 L 4.78125 0 L 4.78125 -2.1875 C 4.78125 -2.945312 4.785156 -3.488281 4.796875 -3.8125 C 4.660156 -3.257812 4.515625 -2.722656 4.359375 -2.203125 L 3.6875 0 L 2.65625 0 L 1.96875 -2.203125 C 1.800781 -2.785156 1.660156 -3.320312 1.546875 -3.8125 C 1.554688 -3.476562 1.5625 -2.9375 1.5625 -2.1875 L 1.5625 0 L 0.609375 0 L 0.609375 -4.75 L 2.109375 -4.75 L 3.1875 -0.875 L 4.25 -4.75 Z M 5.734375 -4.75 "/></g></g></g><g fill="#ff7a28" fill-opacity="1"><g transform="translate(250.886365, 156.616177)"><g><path d="M 3.1875 -1.4375 L 1.59375 -1.4375 L 1.109375 0 L 0.109375 0 L 1.8125 -4.75 L 3 -4.75 L 4.6875 0 L 3.65625 0 Z M 2.390625 -3.9375 L 1.828125 -2.171875 L 2.9375 -2.171875 Z M 2.390625 -3.9375 "/></g></g></g><g fill="#ff7a28" fill-opacity="1"><g transform="translate(255.948203, 156.616177)"><g><path d="M 1.5625 0 L 0.609375 0 L 0.609375 -4.75 L 1.5625 -4.75 Z M 1.5625 0 "/></g></g></g><g fill="#ff7a28" fill-opacity="1"><g transform="translate(258.372663, 156.616177)"><g><path d="M 4.78125 0 L 3.484375 0 L 1.53125 -3.609375 C 1.550781 -3.171875 1.5625 -2.679688 1.5625 -2.140625 L 1.5625 0 L 0.609375 0 L 0.609375 -4.75 L 1.875 -4.75 L 3.859375 -1.078125 C 3.835938 -1.503906 3.828125 -2 3.828125 -2.5625 L 3.828125 -4.75 L 4.765625 -4.75 Z M 4.78125 0 "/></g></g></g><g fill="#ff7a28" fill-opacity="1"><g transform="translate(264.011428, 156.616177)"><g><path d="M 4.328125 -4 L 2.71875 -4 L 2.71875 0 L 1.765625 0 L 1.765625 -4 L 0.15625 -4 L 0.15625 -4.75 L 4.328125 -4.75 Z M 4.328125 -4 "/></g></g></g><g fill="#ff7a28" fill-opacity="1"><g transform="translate(268.709254, 156.616177)"><g><path d="M 4.03125 -0.75 L 4.03125 0 L 0.609375 0 L 0.609375 -4.75 L 3.96875 -4.75 L 3.96875 -4 L 1.5625 -4 L 1.5625 -2.75 L 3.796875 -2.75 L 3.796875 -2 L 1.5625 -2 L 1.5625 -0.75 Z M 4.03125 -0.75 "/></g></g></g><g fill="#ff7a28" fill-opacity="1"><g transform="translate(273.359003, 156.616177)"><g><path d="M 4.78125 0 L 3.484375 0 L 1.53125 -3.609375 C 1.550781 -3.171875 1.5625 -2.679688 1.5625 -2.140625 L 1.5625 0 L 0.609375 0 L 0.609375 -4.75 L 1.875 -4.75 L 3.859375 -1.078125 C 3.835938 -1.503906 3.828125 -2 3.828125 -2.5625 L 3.828125 -4.75 L 4.765625 -4.75 Z M 4.78125 0 "/></g></g></g><g fill="#ff7a28" fill-opacity="1"><g transform="translate(278.997769, 156.616177)"><g><path d="M 3.1875 -1.4375 L 1.59375 -1.4375 L 1.109375 0 L 0.109375 0 L 1.8125 -4.75 L 3 -4.75 L 4.6875 0 L 3.65625 0 Z M 2.390625 -3.9375 L 1.828125 -2.171875 L 2.9375 -2.171875 Z M 2.390625 -3.9375 "/></g></g></g><g fill="#ff7a28" fill-opacity="1"><g transform="translate(284.059606, 156.616177)"><g><path d="M 4.78125 0 L 3.484375 0 L 1.53125 -3.609375 C 1.550781 -3.171875 1.5625 -2.679688 1.5625 -2.140625 L 1.5625 0 L 0.609375 0 L 0.609375 -4.75 L 1.875 -4.75 L 3.859375 -1.078125 C 3.835938 -1.503906 3.828125 -2 3.828125 -2.5625 L 3.828125 -4.75 L 4.765625 -4.75 Z M 4.78125 0 "/></g></g></g><g fill="#ff7a28" fill-opacity="1"><g transform="translate(289.698372, 156.616177)"><g><path d="M 2.640625 -4.84375 C 3.265625 -4.84375 3.75 -4.691406 4.09375 -4.390625 C 4.445312 -4.085938 4.648438 -3.691406 4.703125 -3.203125 L 4.703125 -3.140625 L 3.75 -3.140625 L 3.734375 -3.203125 C 3.609375 -3.816406 3.242188 -4.125 2.640625 -4.125 C 2.253906 -4.125 1.941406 -3.96875 1.703125 -3.65625 C 1.472656 -3.351562 1.359375 -2.9375 1.359375 -2.40625 C 1.359375 -1.832031 1.472656 -1.390625 1.703125 -1.078125 C 1.941406 -0.765625 2.25 -0.609375 2.625 -0.609375 C 2.925781 -0.609375 3.164062 -0.691406 3.34375 -0.859375 C 3.53125 -1.035156 3.65625 -1.273438 3.71875 -1.578125 L 3.734375 -1.640625 L 4.671875 -1.640625 L 4.671875 -1.578125 C 4.617188 -1.054688 4.40625 -0.644531 4.03125 -0.34375 C 3.664062 -0.0507812 3.179688 0.09375 2.578125 0.09375 C 1.910156 0.09375 1.367188 -0.125 0.953125 -0.5625 C 0.546875 -1 0.34375 -1.59375 0.34375 -2.34375 C 0.34375 -3.101562 0.554688 -3.707031 0.984375 -4.15625 C 1.421875 -4.613281 1.972656 -4.84375 2.640625 -4.84375 Z M 2.640625 -4.84375 "/></g></g></g><g fill="#ff7a28" fill-opacity="1"><g transform="translate(295.048669, 156.616177)"><g><path d="M 4.03125 -0.75 L 4.03125 0 L 0.609375 0 L 0.609375 -4.75 L 3.96875 -4.75 L 3.96875 -4 L 1.5625 -4 L 1.5625 -2.75 L 3.796875 -2.75 L 3.796875 -2 L 1.5625 -2 L 1.5625 -0.75 Z M 4.03125 -0.75 "/></g></g></g><g fill="#ff7a28" fill-opacity="1"><g transform="translate(299.698418, 156.616177)"><g><path d="M 0.421875 -0.890625 C 0.523438 -1.003906 0.660156 -1.0625 0.828125 -1.0625 C 1.003906 -1.0625 1.144531 -1.003906 1.25 -0.890625 C 1.363281 -0.785156 1.421875 -0.648438 1.421875 -0.484375 C 1.421875 -0.316406 1.363281 -0.175781 1.25 -0.0625 C 1.144531 0.0390625 1.003906 0.09375 0.828125 0.09375 C 0.660156 0.09375 0.523438 0.0390625 0.421875 -0.0625 C 0.316406 -0.175781 0.265625 -0.316406 0.265625 -0.484375 C 0.265625 -0.648438 0.316406 -0.785156 0.421875 -0.890625 Z M 0.421875 -0.890625 "/></g></g></g><g clip-path="url(#5d4b74856d)"><path fill="#ff7a28" d="M 274.703125 50.269531 C 286.769531 50.269531 296.550781 60.050781 296.550781 72.117188 C 296.550781 72.863281 296.511719 73.601562 296.4375 74.328125 C 295.328125 63.300781 286.023438 54.695312 274.703125 54.695312 C 263.386719 54.695312 254.078125 63.300781 252.972656 74.328125 C 252.898438 73.601562 252.859375 72.863281 252.859375 72.117188 C 252.859375 60.050781 262.640625 50.269531 274.703125 50.269531 " fill-opacity="1" fill-rule="nonzero"/></g><path fill="#ff7a28" d="M 153.183594 77.960938 C 151.9375 72.117188 148.792969 66.984375 144.441406 63.203125 L 146.347656 61.15625 C 150.359375 65.664062 152.898438 71.515625 153.183594 77.960938 " fill-opacity="1" fill-rule="nonzero"/><path fill="#ff7a28" d="M 150.042969 57.1875 C 154.382812 62.011719 157.304688 68.140625 158.105469 74.929688 C 156.644531 68.570312 153.296875 62.941406 148.695312 58.636719 L 150.042969 57.1875 " fill-opacity="1" fill-rule="nonzero"/><g clip-path="url(#3aeffd5372)"><path fill="#ff7a28" d="M 93.871094 78.738281 C 93.871094 60.933594 108.300781 46.5 126.105469 46.5 C 133.980469 46.5 141.183594 49.34375 146.777344 54.042969 L 175.636719 21.941406 C 176.984375 20.441406 178.777344 19.417969 180.753906 19.023438 C 182.339844 18.707031 183.980469 18.804688 185.511719 19.3125 L 193.761719 22.027344 C 195.164062 22.488281 195.703125 24.1875 194.824219 25.375 C 194.234375 26.175781 193.179688 26.46875 192.257812 26.089844 L 183.695312 22.578125 C 182.097656 21.921875 180.265625 22.324219 179.089844 23.585938 L 130.085938 76.210938 L 130.085938 72.609375 L 140.890625 60.589844 C 136.765625 58.039062 131.910156 56.550781 126.703125 56.550781 C 111.742188 56.550781 99.613281 68.679688 99.613281 83.640625 C 99.613281 84.042969 99.65625 84.4375 99.671875 84.839844 C 98.8125 80.800781 98.800781 76.445312 100.078125 71.910156 C 102.980469 61.570312 111.851562 53.730469 122.496094 52.316406 C 130.359375 51.273438 137.613281 53.652344 143.117188 58.113281 L 145.179688 55.820312 C 139.945312 52.136719 133.585938 49.949219 126.703125 49.949219 C 108.898438 49.949219 94.46875 64.378906 94.46875 82.179688 C 94.46875 83.472656 94.550781 84.738281 94.699219 85.988281 C 94.164062 83.65625 93.871094 81.230469 93.871094 78.738281 " fill-opacity="1" fill-rule="nonzero"/></g><path fill="#ff7a28" d="M 152.78125 37.875 C 153.105469 40.414062 155.238281 41.886719 155.238281 41.886719 C 153.023438 42.460938 149.910156 41.886719 149.910156 41.886719 C 146.71875 39.511719 146.554688 26.734375 151.714844 26.40625 C 156.875 26.078125 165.066406 30.910156 165.066406 30.910156 C 165.066406 30.910156 160.890625 30.253906 156.875 29.765625 C 152.863281 29.273438 152.453125 35.335938 152.78125 37.875 " fill-opacity="1" fill-rule="nonzero"/><path fill="#ff7a28" d="M 193.648438 35.085938 C 206.910156 40.816406 220.363281 56.714844 216.757812 58.007812 C 213.15625 59.300781 208.402344 58.007812 208.402344 58.007812 C 217.25 57.664062 207.914062 49.015625 197.917969 41.640625 C 187.921875 34.269531 171.125 34.714844 170.554688 42.960938 C 169.984375 51.207031 181.371094 54.914062 181.371094 54.914062 C 181.371094 54.914062 165.96875 52.621094 166.707031 42.960938 C 167.445312 33.304688 180.386719 29.355469 193.648438 35.085938 " fill-opacity="1" fill-rule="nonzero"/><path fill="#ff7a28" d="M 271.15625 42.953125 C 271.15625 42.953125 257.882812 45.574219 248.871094 65.234375 C 248.871094 65.234375 228.210938 60.714844 217.351562 52.074219 C 217.351562 52.074219 232.980469 57.863281 242.15625 57.863281 C 251.328125 57.863281 254.933594 40.167969 271.15625 42.953125 " fill-opacity="1" fill-rule="nonzero"/><path fill="#ff7a28" d="M 274.703125 56.535156 C 285.804688 56.535156 294.804688 65.53125 294.804688 76.632812 C 294.804688 77.167969 294.761719 77.691406 294.722656 78.214844 C 293.914062 67.859375 285.269531 59.703125 274.703125 59.703125 C 264.140625 59.703125 255.496094 67.859375 254.6875 78.214844 C 254.644531 77.691406 254.605469 77.167969 254.605469 76.632812 C 254.605469 65.53125 263.605469 56.535156 274.703125 56.535156 " fill-opacity="1" fill-rule="nonzero"/></svg>